<svg viewBox="0 0 580.81 390.85" xmlns="http://www.w3.org/2000/svg">
  <path d="m588.47 233.5-.3-7.24v-.45l-.7-7.2-.06-.46-1.15-7.15c0-.14 0-.29-.09-.44l-1.52-7.09c0-.15-.07-.3-.11-.46l-1.95-7c0-.15-.08-.3-.13-.44l-2.34-6.85c0-.14-.1-.28-.16-.42l-2.72-6.71c-.06-.15-.12-.29-.19-.43l-3.1-6.53c-.07-.14-.13-.28-.21-.41l-3.48-6.36-.23-.4-3.84-6.14-.25-.37-4.19-5.91c-.09-.13-.18-.26-.28-.38l-4.47-5.66-.3-.35-4.85-5.38c-.1-.12-.2-.23-.31-.34l-5.13-5.08c-.11-.11-.22-.22-.34-.32l-5.43-4.8-.36-.3-5.7-4.47-.36-.27-5.93-4.14-.39-.26-6.18-3.78-.39-.23-6.37-3.42a4.11 4.11 0 00-.42-.21l-6.58-3.05a3.52 3.52 0 00-.4-.18l-6.73-2.68c-.14-.06-.3-.11-.45-.16l-6.88-2.28-.43-.13-7-1.87-.45-.11-7.08-1.47-.45-.08-7.17-1.07a7.81 7.81 0 00-1.18-.09h-233-.51l-3.37.21a8 8 0 00-1 .13l-3.32.63a7.18 7.18 0 00-1 .25l-3.21 1a6.21 6.21 0 00-.93.37l-3.06 1.44a8.4 8.4 0 00-.88.48l-2.85 1.82a7.17 7.17 0 00-.79.57l-2.6 2.15a8.06 8.06 0 00-.74.69l-2.32 2.47a7.92 7.92 0 00-.64.77l-2 2.74c-.19.27-.37.55-.54.85l-1.62 2.95a8.13 8.13 0 00-.42.9l-1.25 3.15a8.1 8.1 0 00-.31.95l-.84 3.26a9.18 9.18 0 00-.2 1l-.41 3.35a8.22 8.22 0 00-.06 1v3.38a7.93 7.93 0 00.06 1l.41 3.35a9.18 9.18 0 00.2 1l.84 3.26a9.78 9.78 0 00.31 1l1.25 3.14a7.85 7.85 0 00.42.88l1.62 3a5.35 5.35 0 00.29.47h-80.83a7.81 7.81 0 00-1.18.09l-7.17 1.07-.45.08-7.08 1.47-.45.11-7 1.88-.43.13-6.88 2.27-.45.16-6.72 2.68a3 3 0 00-.41.18l-6.58 3a3.17 3.17 0 00-.41.21l-6.37 3.42c-.14.07-.27.15-.4.23l-6.17 3.79a3.42 3.42 0 00-.4.26l-5.89 4.21-.36.27-5.7 4.47-.36.3-5.43 4.8c-.12.1-.23.21-.34.32l-5.13 5.09a3.26 3.26 0 00-.31.33l-4.85 5.39-.3.35-4.52 5.65c-.1.12-.19.25-.28.38l-4.18 5.91-.24.41-3.84 6.14-.23.4-3.48 6.36-.21.41-3.1 6.53c-.07.14-.13.28-.19.43l-2.72 6.71c-.06.14-.11.28-.16.42l-2.34 6.85c0 .14-.09.29-.13.44l-1.94 7c0 .16-.08.31-.12.47l-1.54 7.01-.09.45-1.12 7.14v.46l-.79 7.2v.45l-.3 7.24a3.68 3.68 0 000 .47l.12 7.24v.46l.54 7.23c0 .15 0 .3.05.46l1 7.17c0 .15 0 .3.07.45l1.38 7.12c0 .15.06.3.1.45l1.78 7c0 .15.08.29.13.43l2.13 6.92.15.43 2.57 6.78.18.43 3 6.61c.06.14.13.27.2.4l3.32 6.43.23.4 3.7 6.23c.08.14.16.27.25.4l4.06 6c.08.13.17.25.26.37l4.39 5.75a3.51 3.51 0 00.29.36l4.71 5.5.31.34 5 5.21.33.33 5.32 4.92.35.3 5.59 4.6.37.28 5.84 4.27.38.26 6.08 3.89.4.25 6.3 3.56.31.17 168.11 85.52a8 8 0 003.63.87 8 8 0 007.29-11.37l-35.35-76.86h126.35l-10.7 23.25a8 8 0 0010.9 10.48l168.13-85.5.32-.17 6.29-3.56.4-.25 6.08-3.92.38-.26 5.84-4.27.37-.28 5.59-4.6.35-.3 5.32-4.92.33-.33 5-5.22.31-.33 4.71-5.5.29-.36 4.39-5.75c.09-.12.18-.24.26-.37l4.06-6c.09-.12.17-.26.25-.39l3.7-6.23c.08-.13.16-.27.23-.41l3.33-6.42.19-.4 3-6.61.18-.43 2.57-6.78.15-.43 2.18-6.91.12-.43 1.78-7c0-.15.07-.3.1-.45l1.38-7.09c0-.15 0-.3.07-.45l1-7.17c0-.16 0-.31 0-.47l.55-7.22c0-.15 0-.3 0-.46l.13-7.24c.03-.18.03-.34.02-.49zm-378.38 155.65a8 8 0 00-7.28 11.35l31 67.3-147.47-75-5.93-3.36-5.7-3.67-5.47-4-5.24-4.29-5-4.61-4.72-4.87-4.42-5.15-4.1-5.38-3.76-5.62-3.5-5.85-3.12-6-2.78-6.18-2.4-6.34-2-6.47-1.67-6.57-1.29-6.66-.9-6.71-.51-6.76-.12-6.78.28-6.77.66-6.75 1.05-6.69 1.43-6.63 1.81-6.53 2.19-6.42 2.55-6.28 2.91-6.12 3.25-6 3.6-5.74 3.91-5.54 4.24-5.29 4.53-5 4.77-4.77 5.11-4.48 5.34-4.19 5.55-3.88 5.78-3.54 6-3.21 6.15-2.85 6.3-2.51 6.43-2.13 6.55-1.76 6.64-1.38 6.35-.94h19.12l-1.78 2.72q-.24.38-.45.78l-1.57 3.1c-.14.29-.27.58-.38.88l-1.18 3.26a7 7 0 00-.26.89l-.81 3.38a9.1 9.1 0 00-.16.91l-.4 3.45a7.26 7.26 0 00-.06.93v3.48a7.26 7.26 0 00.06.93l.4 3.45c0 .3.09.61.16.91l.81 3.38a7 7 0 00.26.89l1.18 3.26c.11.3.24.59.38.88l1.57 3.1q.21.4.45.78l1.7 2.6-2.95.17a9 9 0 00-.91.1l-3.42.6c-.31.06-.62.13-.93.22l-3.33 1a8.89 8.89 0 00-.86.32l-3.19 1.38a9.12 9.12 0 00-.83.41l-3 1.74a9 9 0 00-.76.5l-2.79 2.07a7.36 7.36 0 00-.75.63l-2.52 2.39c-.21.2-.41.42-.61.64l-2.28 2.66a7.09 7.09 0 00-.56.76l-1.91 2.9a6.56 6.56 0 00-.47.81l-1.56 3.11a7.42 7.42 0 00-.37.86l-1.18 3.26a7 7 0 00-.27.89l-.8 3.38a9.1 9.1 0 00-.16.91l-.4 3.44a7.3 7.3 0 00-.06.94v3.47a7.3 7.3 0 00.06.94l.4 3.45c0 .3.09.6.16.9l.8 3.38a6.55 6.55 0 00.27.89l1.18 3.27a9.28 9.28 0 00.37.86l1.56 3.1a6.56 6.56 0 00.47.81l1.91 2.9a8 8 0 00.55.75l2.24 2.67c.2.23.41.46.63.67l2.52 2.38q.34.31.72.6l2.8 2.08a7.18 7.18 0 00.79.52l3 1.73a7.68 7.68 0 00.81.41l3.19 1.37a8.89 8.89 0 00.86.32l3.33 1a7.83 7.83 0 00.93.22l3.42.6a6.85 6.85 0 00.91.1l3.47.21h14.39l-1.66 2.54a6.25 6.25 0 00-.46.79l-1.57 3.1c-.14.29-.27.58-.38.88l-1.18 3.26a7.54 7.54 0 00-.27.89l-.8 3.38c-.07.3-.12.61-.16.91l-.41 3.46c0 .31-.05.62-.05.93v3.47c0 .31 0 .62.05.93l.41 3.46a9.1 9.1 0 00.16.91l.8 3.38a7 7 0 00.27.89l1.18 3.26a8.64 8.64 0 00.38.88l1.57 3.11a7 7 0 00.46.79l1.91 2.9a6.76 6.76 0 00.55.74l2.23 2.66a8 8 0 00.63.67l2.53 2.39a7.15 7.15 0 00.73.61l2.78 2.07a7.8 7.8 0 00.77.5l3 1.74a7.18 7.18 0 00.83.42l3.19 1.38a9.25 9.25 0 00.88.32l3.33 1a6.77 6.77 0 00.89.21l3.43.61c.3 0 .62.09.93.11l3.46.2h.47 181.7l-17.29 37.6z" fill="#fff" transform="translate(-7.66 -102.51)"/>
</svg>
