<?xml version="1.0" encoding="utf-8"?>
<!-- Generator: Adobe Illustrator 22.1.0, SVG Export Plug-In . SVG Version: 6.00 Build 0)  -->
<svg version="1.1" id="Livello_1" xmlns="http://www.w3.org/2000/svg" xmlns:xlink="http://www.w3.org/1999/xlink" x="0px" y="0px"
	 viewBox="0 0 601.1 405" style="enable-background:new 0 0 601.1 405;" xml:space="preserve">
<style type="text/css">
	.st0{fill:none;stroke:#060606;stroke-width:15;stroke-linecap:round;stroke-linejoin:round;}
	.st1{fill:#FFFFFF;}
</style>
<title>Logo definitivo LOOGIN</title>
<path class="st0" d="M1116.6,574.2"/>
<path class="st0" d="M1130.8,575.2"/>
<path class="st0" d="M1130.8,601.2"/>
<path class="st1" d="M601.1,135.9l-0.3-7.5c0-0.1,0-0.3,0-0.4l-0.8-7.5c0-0.1,0-0.3-0.1-0.4l-1.1-7.4c0-0.1,0-0.3-0.1-0.4l-1.5-7.3
	c0-0.1-0.1-0.3-0.1-0.4l-2-7.2c0-0.1-0.1-0.3-0.1-0.4l-2.4-7.1c0-0.1-0.1-0.3-0.1-0.4l-2.8-7c-0.1-0.1-0.1-0.3-0.2-0.4l-3.2-6.7
	c-0.1-0.1-0.1-0.3-0.2-0.4l-3.6-6.6c-0.1-0.1-0.1-0.3-0.2-0.4l-4-6.4c-0.1-0.1-0.2-0.2-0.2-0.4l-4.3-6.1c-0.1-0.1-0.2-0.2-0.3-0.4
	l-4.6-5.9c-0.1-0.1-0.2-0.2-0.3-0.3l-5-5.6c-0.1-0.1-0.2-0.2-0.3-0.3l-5.3-5.3c-0.1-0.1-0.2-0.2-0.3-0.3l-5.6-5
	c-0.1-0.1-0.2-0.2-0.3-0.3l-5.9-4.6c-0.1-0.1-0.2-0.2-0.3-0.3l-6.2-4.3c-0.1-0.1-0.2-0.2-0.4-0.2l-6.4-3.9c-0.1-0.1-0.2-0.1-0.4-0.2
	l-6.6-3.5c-0.1-0.1-0.3-0.1-0.4-0.2l-6.8-3.2c-0.1-0.1-0.3-0.1-0.4-0.2l-7-2.8c-0.1-0.1-0.3-0.1-0.4-0.2l-7.2-2.3
	c-0.1,0-0.3-0.1-0.4-0.1l-7.2-2c-0.1,0-0.3-0.1-0.4-0.1l-7.3-1.5c-0.1,0-0.3-0.1-0.4-0.1l-7.4-1.1C479.1,0,478.8,0,478.3,0H236.9
	c-0.2,0-0.3,0-0.6,0l-3.5,0.2c-0.3,0-0.7,0.1-1,0.1L228.3,1c-0.3,0.1-0.7,0.1-1,0.2L224,2.3c-0.3,0.1-0.7,0.2-1,0.3l-3.2,1.5
	c-0.3,0.1-0.7,0.3-0.9,0.6l-3,1.9c-0.3,0.2-0.6,0.3-0.8,0.6l-2.7,2.2c-0.2,0.2-0.6,0.4-0.8,0.8l-2.4,2.5c-0.2,0.2-0.4,0.6-0.7,0.8
	l-2.1,2.9c-0.2,0.3-0.4,0.6-0.6,0.9l-1.7,3.1c-0.2,0.3-0.3,0.7-0.4,0.9l-1.3,3.2c-0.1,0.3-0.2,0.7-0.3,1l-0.9,3.4
	c-0.1,0.3-0.1,0.7-0.2,1.1l-0.4,3.4c0,0.3-0.1,0.7-0.1,1v3.5c0,0.3,0,0.7,0.1,1l0.4,3.4c0,0.3,0.1,0.7,0.2,1.1l0.9,3.4
	c0.1,0.3,0.2,0.7,0.3,1l1.3,3.2c0.1,0.3,0.2,0.7,0.4,0.9L206,55c0.1,0.2,0.2,0.3,0.3,0.4h-83.6c-0.4,0-0.8,0-1.2,0.1l-7.4,1.1
	c-0.1,0-0.3,0-0.4,0.1l-7.3,1.5c-0.1,0-0.3,0.1-0.4,0.1l-7.2,2c-0.1,0-0.3,0.1-0.4,0.1l-7.2,2.3c-0.1,0-0.3,0.1-0.4,0.2l-7,2.8
	c-0.1,0.1-0.3,0.1-0.4,0.2l-6.8,3.2c-0.1,0.1-0.3,0.1-0.4,0.2L69.4,73c-0.1,0.1-0.2,0.1-0.4,0.2l-6.4,3.9c-0.1,0.1-0.3,0.2-0.4,0.2
	l-6.2,4.3c-0.1,0.1-0.2,0.2-0.3,0.3l-5.9,4.6c-0.1,0.1-0.2,0.2-0.3,0.3l-5.6,5c-0.1,0.1-0.2,0.2-0.3,0.3l-5.3,5.3
	c-0.1,0.1-0.2,0.2-0.3,0.3l-5,5.5c-0.1,0.1-0.2,0.2-0.3,0.3l-4.6,5.9c-0.1,0.1-0.2,0.2-0.3,0.4l-4.3,6.1c-0.1,0.1-0.2,0.2-0.2,0.4
	l-4,6.4c-0.1,0.1-0.2,0.3-0.2,0.4l-3.6,6.6c-0.1,0.1-0.1,0.3-0.2,0.4l-3.2,6.7c-0.1,0.1-0.1,0.3-0.2,0.4l-2.8,7
	c-0.1,0.1-0.1,0.3-0.1,0.4l-2.4,7.1c0,0.1-0.1,0.3-0.1,0.4l-2,7.2c0,0.1-0.1,0.3-0.1,0.4l-1.5,7.3c0,0.1-0.1,0.3-0.1,0.4l-1.1,7.4
	c0,0.1,0,0.3-0.1,0.4l-0.8,7.5c0,0.1,0,0.3,0,0.4L0,191.2c0,0.1,0,0.3,0,0.4l0.1,7.5c0,0.1,0,0.3,0,0.4l0.6,7.5c0,0.1,0,0.3,0,0.4
	l1,7.4c0,0.1,0,0.3,0.1,0.4l1.4,7.4c0,0.1,0.1,0.3,0.1,0.4l1.9,7.3c0,0.1,0.1,0.3,0.1,0.4l2.2,7.2c0,0.1,0.1,0.3,0.1,0.4l2.7,7
	c0.1,0.1,0.1,0.3,0.2,0.4l3.1,6.8c0.1,0.1,0.1,0.3,0.2,0.4l3.4,6.6c0.1,0.1,0.1,0.3,0.2,0.4l3.9,6.4c0.1,0.1,0.2,0.2,0.2,0.4
	l4.2,6.2c0.1,0.1,0.2,0.2,0.2,0.3l4.5,6c0.1,0.1,0.2,0.2,0.3,0.3l4.9,5.6c0.1,0.1,0.2,0.2,0.3,0.3l5.2,5.4c0.1,0.1,0.2,0.2,0.3,0.3
	l5.5,5.1c0.1,0.1,0.2,0.2,0.3,0.3l5.7,4.8c0.1,0.1,0.2,0.2,0.3,0.3l6.1,4.4c0.1,0.1,0.2,0.2,0.4,0.2l6.3,4.1
	c0.1,0.1,0.2,0.2,0.4,0.2l6.5,3.6c0.1,0.1,0.2,0.1,0.3,0.2l174,89c1.2,0.6,2.4,0.9,3.8,0.9c2.1,0,4.2-0.8,5.7-2.3
	c2.5-2.4,3.3-6.2,1.8-9.4l-36.6-79.5h130.8l-11,24.1c-1.4,3.2-0.8,7,1.8,9.4c1.5,1.5,3.6,2.3,5.7,2.3c1.3,0,2.5-0.3,3.8-0.9
	l174.1-88.5c0.1-0.1,0.2-0.1,0.3-0.2l6.5-3.6c0.1-0.1,0.3-0.1,0.4-0.2l6.3-4.1c0.1-0.1,0.2-0.2,0.4-0.2l6.1-4.4
	c0.1-0.1,0.2-0.2,0.3-0.3l5.7-4.8c0.1-0.1,0.2-0.2,0.3-0.3l5.5-5.1c0.1-0.1,0.2-0.2,0.3-0.3l5.2-5.4c0.1-0.1,0.2-0.2,0.3-0.3
	l4.9-5.7c0.1-0.1,0.2-0.2,0.3-0.3l4.5-6c0.1-0.1,0.2-0.2,0.2-0.3l4.2-6.2c0.1-0.1,0.2-0.2,0.2-0.4l3.9-6.4c0.1-0.1,0.1-0.3,0.2-0.4
	l3.4-6.6c0.1-0.1,0.1-0.3,0.2-0.4l3.1-6.8c0.1-0.1,0.1-0.3,0.2-0.4l2.7-7.1c0.1-0.1,0.1-0.3,0.1-0.4l2.2-7.2c0-0.1,0.1-0.3,0.1-0.4
	l1.9-7.3c0-0.1,0.1-0.3,0.1-0.4l1.4-7.4c0-0.1,0.1-0.3,0.1-0.4l1-7.4c0-0.1,0-0.3,0-0.4l0.6-7.5c0-0.1,0-0.3,0-0.4l0.1-7.5
	C601.1,136.2,601.1,136.1,601.1,135.9z M244.1,199.8l22-138.3c0.2-1.2,1.2-2,2.3-2h66.1c1.3,0,2.3,1,2.3,2.3c0,0.1,0,0.2,0,0.4
	l-4.8,29.9c-0.1,1.2-1.2,2-2.3,2h-28.8l-3.1,18.2H323c1.3,0,2.3,1,2.3,2.3c0,0.1,0,0.2,0,0.3l-4.4,28.7c-0.1,1.2-1.2,2-2.3,2h-25.9
	l-3.2,19.7h28.2c1.3,0,2.3,1,2.3,2.3c0,0.1,0,0.2,0,0.3l-5.1,32.3c-0.2,1.2-1.2,2-2.3,2h-66.1c-1.3,0-2.3-1-2.4-2.3
	C244,200.2,244,200,244.1,199.8z M360.7,297.1H209.3c-2.9,0-5.4,1.4-7,3.9c-1.5,2.4-1.8,5.4-0.6,8l32,69.7L81.1,300.9l-6.2-3.5
	l-5.9-3.8l-5.6-4.1l-5.4-4.4l-5.2-4.8l-4.9-5.1l-4.5-5.3l-4.2-5.5l-4-5.9l-3.5-6.1l-3.2-6.2l-2.9-6.4l-2.5-6.5l-2.1-6.7l-1.8-6.8
	l-1.3-6.8l-0.9-7l-0.6-7l-0.1-7.1l0.3-7l0.7-7l1.1-7l1.4-6.8l1.9-6.7l2.3-6.6l2.7-6.5l3-6.3l3.4-6.2l3.8-6l4.1-5.7l4.4-5.5l4.8-5.2
	l5-5l5.3-4.6l5.5-4.3l5.7-4l6-3.6l6.2-3.3l6.4-3l6.5-2.5l6.6-2.2l6.7-1.8l6.8-1.4l6.6-1h19.8l-1.9,2.9c-0.2,0.2-0.3,0.6-0.4,0.8
	l-1.7,3.2c-0.1,0.3-0.3,0.6-0.4,0.9l-1.2,3.4c-0.1,0.3-0.2,0.6-0.2,0.9l-0.9,3.5c-0.1,0.3-0.1,0.7-0.2,1l-0.4,3.5
	c0,0.3-0.1,0.7-0.1,1v3.6c0,0.3,0,0.7,0.1,1l0.4,3.5c0,0.3,0.1,0.7,0.2,1l0.9,3.5c0.1,0.3,0.1,0.7,0.2,0.9l1.2,3.4
	c0.1,0.3,0.2,0.7,0.4,0.9l1.7,3.2c0.1,0.2,0.3,0.6,0.4,0.8l1.8,2.7l-3.1,0.2c-0.3,0-0.7,0.1-1,0.1l-3.5,0.7c-0.3,0.1-0.7,0.1-1,0.2
	l-3.4,1c-0.3,0.1-0.6,0.2-0.9,0.3l-3.3,1.4c-0.3,0.1-0.6,0.2-0.9,0.4l-3.1,1.8c-0.2,0.1-0.6,0.3-0.8,0.6l-2.9,2.1
	c-0.2,0.2-0.6,0.4-0.8,0.7l-2.7,2.4c-0.2,0.2-0.4,0.4-0.7,0.7l-2.3,2.8c-0.2,0.2-0.4,0.6-0.6,0.8l-2,3c-0.2,0.2-0.3,0.6-0.4,0.9
	l-1.7,3.2c-0.1,0.3-0.2,0.6-0.3,0.9l-1.2,3.4c-0.1,0.3-0.2,0.6-0.2,0.9l-0.9,3.5c-0.1,0.3-0.1,0.7-0.2,1l-0.4,3.5
	c0,0.3-0.1,0.7-0.1,1v3.6c0,0.3,0,0.7,0.1,1l0.4,3.5c0,0.3,0.1,0.7,0.2,1l0.9,3.5c0.1,0.3,0.1,0.7,0.2,0.9l1.2,3.4
	c0.1,0.3,0.2,0.6,0.3,0.9l1.7,3.2c0.1,0.3,0.3,0.6,0.4,0.9l2,3c0.2,0.2,0.3,0.6,0.6,0.8l2.3,2.8c0.2,0.2,0.4,0.4,0.7,0.7l2.7,2.4
	c0.2,0.2,0.4,0.4,0.8,0.7l2.9,2.2c0.2,0.2,0.6,0.3,0.8,0.6l3.1,1.8c0.2,0.1,0.6,0.3,0.9,0.4l3.3,1.4c0.3,0.1,0.6,0.2,0.9,0.3l3.4,1
	c0.3,0.1,0.7,0.2,1,0.2l3.5,0.7c0.3,0,0.7,0.1,1,0.1l3.6,0.2c0.1,0,0.3,0,0.4,0h14.5l-1.8,2.7c-0.2,0.2-0.3,0.6-0.4,0.8l-1.7,3.2
	c-0.1,0.3-0.3,0.6-0.4,0.9l-1.2,3.4c-0.1,0.3-0.2,0.6-0.2,0.9l-0.9,3.5c-0.1,0.3-0.1,0.7-0.2,1l-0.4,3.5c0,0.3-0.1,0.7-0.1,1v3.6
	c0,0.3,0,0.7,0.1,1l0.4,3.5c0,0.3,0.1,0.7,0.2,1l0.9,3.5c0.1,0.3,0.1,0.7,0.2,0.9l1.2,3.4c0.1,0.3,0.2,0.7,0.4,0.9l1.7,3.2
	c0.1,0.3,0.3,0.6,0.4,0.8l2,3c0.2,0.2,0.3,0.6,0.6,0.8l2.3,2.8c0.2,0.2,0.4,0.4,0.7,0.7l2.7,2.4c0.2,0.2,0.4,0.4,0.8,0.7l2.9,2.1
	c0.2,0.2,0.6,0.3,0.8,0.6l3.1,1.8c0.3,0.1,0.6,0.3,0.9,0.4l3.3,1.4c0.3,0.1,0.6,0.2,0.9,0.3l3.4,1c0.3,0.1,0.7,0.1,0.9,0.2l3.5,0.7
	c0.3,0.1,0.7,0.1,1,0.1l3.6,0.2c0.1,0,0.3,0,0.4,0h188.1L360.7,297.1z M422.6,202.6L422.6,202.6h-35.1c-1.3,0-2.3-1.1-2.3-2.3
	c0-0.1,0-0.2,0-0.3l8.4-53.2h-16.2l-8.5,53.9c-0.2,1.2-1.2,2-2.3,2h-35.1c-1.3,0-2.3-1.1-2.3-2.3c0-0.1,0-0.2,0-0.3l22-138.3
	c0.2-1.2,1.2-2,2.3-2h35.1c1.3,0,2.3,1.1,2.3,2.3c0,0.1,0,0.2,0,0.3l-7.8,49h16.5l7.7-49.7c0.1-1.2,1.2-2,2.3-2h35.1
	c1.3,0,2.3,1.1,2.3,2.3c0,0.1,0,0.2,0,0.3l-22,138.3C424.8,201.7,423.8,202.6,422.6,202.6z M504.7,62.3L504.7,62.3l-22,138.3
	c-0.1,1.2-1.2,2-2.3,2h-35.1c-1.3,0-2.3-1.1-2.3-2.3c0-0.1,0-0.2,0-0.3l21.9-138.3c0.2-1.2,1.2-2,2.3-2h35.1c1.3,0,2.3,1.1,2.3,2.3
	C504.7,62.1,504.7,62.2,504.7,62.3z"/>
</svg>
