<svg id="Livello_1" data-name="Livello 1" xmlns="http://www.w3.org/2000/svg" viewBox="0 0 594.9 404.99"><defs><style>.cls-1{fill:none;stroke:#060606;stroke-linecap:round;stroke-linejoin:round;stroke-width:15px;}.cls-2{fill:#fff;}</style></defs><title>Logo definitivo LOOGIN</title><path class="cls-1" d="M1116.94,669.34" transform="translate(-0.38 -95.15)"/><path class="cls-1" d="M1131.13,670.33" transform="translate(-0.38 -95.15)"/><path class="cls-1" d="M1131.13,696.31" transform="translate(-0.38 -95.15)"/><path class="cls-2" d="M547.37,135.61c-25.9-22.71-58.72-36.84-91.73-39.85a8.35,8.35,0,0,0-3.13-.61H245.07c-20.69,0-37.51,17-37.51,38a38.23,38.23,0,0,0,5,19l-71.38.59-1.17,0c-33,3-65.83,17.14-91.73,39.84C17.39,219.65.38,254.8.38,291.53c0,35.6,11,64.44,34.52,90.76A169.38,169.38,0,0,0,76,415.42L219.38,499a4.66,4.66,0,0,0,.45.22,4.52,4.52,0,0,0,.49.25c.23.1.47.17.71.25l.34.12a9.18,9.18,0,0,0,.91.19l.18,0a8.32,8.32,0,0,0,1.12.08h0a6.86,6.86,0,0,0,1-.07l.25,0c.25,0,.5-.08.75-.14l.34-.11a6.21,6.21,0,0,0,.61-.2l.42-.17.31-.13.11-.08a7.27,7.27,0,0,0,1.27-.79l.16-.13a8.48,8.48,0,0,0,.92-.88c.08-.09.17-.18.24-.27a7.71,7.71,0,0,0,.81-1.13,0,0,0,0,0,0,0,8.39,8.39,0,0,0,.64-1.4c.1-.28.15-.57.22-.85a4.36,4.36,0,0,0,.22-1.64c0-.27,0-.54,0-.81a6.89,6.89,0,0,0-.15-.89c0-.23,0-.47-.11-.71a8.31,8.31,0,0,0-.58-1.53,0,0,0,0,0,0,0L189.2,403.28c1.53,0,2.67-.08,3.55-.16H378.43l-13.83,28s0,0,0,0a8,8,0,0,0-.58,1.54c-.06.22-.07.43-.11.65s-.13.63-.15.95,0,.51,0,.76a6.33,6.33,0,0,0,0,.87,6.58,6.58,0,0,0,.17.74,8.16,8.16,0,0,0,.26,1,9.13,9.13,0,0,0,.61,1.35l0,0a7.71,7.71,0,0,0,.81,1.13,2.85,2.85,0,0,0,.23.26,8.67,8.67,0,0,0,.93.89c.06,0,.1.09.15.13a8.8,8.8,0,0,0,1.28.79l.11.08.3.12.43.18c.2.08.4.14.6.2a2.3,2.3,0,0,0,.35.1,6.63,6.63,0,0,0,.75.15l.25,0a8.42,8.42,0,0,0,1,.07h0a8.44,8.44,0,0,0,1.12-.08l.18,0a5.66,5.66,0,0,0,.91-.19l.34-.11c.24-.08.48-.15.71-.25s.32-.16.49-.25a4.66,4.66,0,0,0,.45-.22l143.36-83.57a169.57,169.57,0,0,0,41.12-33.13c23.55-26.32,34.52-55.16,34.52-90.76C595.28,197.84,578.27,162.69,547.37,135.61ZM247.5,290l21.59-135.88a2.33,2.33,0,0,1,2.3-2h64.88a2.32,2.32,0,0,1,2.3,2.7l-4.65,29.42a2.32,2.32,0,0,1-2.3,2H303.29l-3,17.91H325a2.32,2.32,0,0,1,2.3,2.68l-4.38,28.27a2.32,2.32,0,0,1-2.3,2H295.2L292,256.44h27.69a2.32,2.32,0,0,1,2.3,2.69l-5,31.64a2.33,2.33,0,0,1-2.3,2H249.8A2.32,2.32,0,0,1,247.5,290Zm139.16,96.41H191.91l-8.17.23c-9.17.09-9.93.11-12.12,1.42-.18.11-.33.25-.5.37s-.31.21-.45.33a7.28,7.28,0,0,0-.81.76l-.29.29a7.84,7.84,0,0,0-.85,1.22,1.91,1.91,0,0,0-.16.32,8.62,8.62,0,0,0-.47,1c-.06.17-.1.33-.15.5s-.16.63-.22.95-.05.37-.07.56,0,.63,0,.94,0,.39,0,.59a8,8,0,0,0,.16,1c0,.18.06.35.11.53s0,.08,0,.13a8.42,8.42,0,0,0,.52,1.32v0l35.39,71.69L84.42,401a152.83,152.83,0,0,1-37.09-29.85c-20.65-23.07-30.27-48.38-30.27-79.63,0-68.42,68.16-120,131.06-122.63a37.4,37.4,0,0,0-1.25,44.44,37.48,37.48,0,0,0-31.08,40.32c1.65,18.84,18.71,34.16,38,34.16h6.8a37.49,37.49,0,0,0,31.18,58.33h211.1c.88.09,2,.14,3.55.17Zm36.22-93.71H388.41a2.33,2.33,0,0,1-2.3-2.69l8.24-52.28h-16l-8.35,53a2.34,2.34,0,0,1-2.3,2H333.16a2.33,2.33,0,0,1-2.3-2.7l21.59-135.88a2.34,2.34,0,0,1,2.3-2h34.47a2.33,2.33,0,0,1,2.3,2.7L383.86,203H400l7.59-48.86a2.32,2.32,0,0,1,2.3-2h34.55a2.33,2.33,0,0,1,2.3,2.7L425.18,290.76A2.33,2.33,0,0,1,422.88,292.73Zm80.69-137.85L482,290.76a2.32,2.32,0,0,1-2.3,2H445.21a2.33,2.33,0,0,1-2.3-2.69l21.5-135.89a2.33,2.33,0,0,1,2.3-2h34.56A2.33,2.33,0,0,1,503.57,154.88Z" transform="translate(-0.38 -95.15)"/></svg>