<svg enable-background="new 0 0 601.1 405" viewBox="0 0 601.1 405" xmlns="http://www.w3.org/2000/svg">
  <path d="m601.1 135.9-.3-7.5c0-.1 0-.3 0-.4l-.8-7.5c0-.1 0-.3-.1-.4l-1.1-7.4c0-.1 0-.3-.1-.4l-1.5-7.3c0-.1-.1-.3-.1-.4l-2-7.2c0-.1-.1-.3-.1-.4l-2.4-7.1c0-.1-.1-.3-.1-.4l-2.8-7c-.1-.1-.1-.3-.2-.4l-3.2-6.7c-.1-.1-.1-.3-.2-.4l-3.6-6.6c-.1-.1-.1-.3-.2-.4l-4-6.4c-.1-.1-.2-.2-.2-.4l-4.3-6.1c-.1-.1-.2-.2-.3-.4l-4.6-5.9c-.1-.1-.2-.2-.3-.3l-5-5.6c-.1-.1-.2-.2-.3-.3l-5.3-5.3c-.1-.1-.2-.2-.3-.3l-5.6-5c-.1-.1-.2-.2-.3-.3l-5.9-4.6c-.1-.1-.2-.2-.3-.3l-6.2-4.3c-.1-.1-.2-.2-.4-.2l-6.4-3.9c-.1-.1-.2-.1-.4-.2l-6.6-3.5c-.1-.1-.3-.1-.4-.2l-6.8-3.2c-.1-.1-.3-.1-.4-.2l-7-2.8c-.1-.1-.3-.1-.4-.2l-7.2-2.3c-.1 0-.3-.1-.4-.1l-7.2-2c-.1 0-.3-.1-.4-.1l-7.3-1.5c-.1 0-.3-.1-.4-.1l-7.4-1.1c-1.2-.9-1.5-.9-2-.9h-241.4c-.2 0-.3 0-.6 0l-3.5.2c-.3 0-.7.1-1 .1l-3.5.7c-.3.1-.7.1-1 .2l-3.3 1.1c-.3.1-.7.2-1 .3l-3.2 1.5c-.3.1-.7.3-.9.6l-3 1.9c-.3.2-.6.3-.8.6l-2.7 2.2c-.2.2-.6.4-.8.8l-2.4 2.5c-.2.2-.4.6-.7.8l-2.1 2.9c-.2.3-.4.6-.6.9l-1.7 3.1c-.2.3-.3.7-.4.9l-1.3 3.2c-.1.3-.2.7-.3 1l-.9 3.4c-.1.3-.1.7-.2 1.1l-.4 3.4c0 .3-.1.7-.1 1v3.5c0 .3 0 .7.1 1l.4 3.4c0 .3.1.7.2 1.1l.9 3.4c.1.3.2.7.3 1l1.3 3.2c.1.3.2.7.4.9l1.9 3.1c.1.2.2.3.3.4h-83.6c-.4 0-.8 0-1.2.1l-7.4 1.1c-.1 0-.3 0-.4.1l-7.3 1.5c-.1 0-.3.1-.4.1l-7.2 2c-.1 0-.3.1-.4.1l-7.2 2.3c-.1 0-.3.1-.4.2l-7 2.8c-.1.1-.3.1-.4.2l-6.8 3.2c-.1.1-.3.1-.4.2l-6.8 3.7c-.1.1-.2.1-.4.2l-6.4 3.9c-.1.1-.3.2-.4.2l-6.2 4.3c-.1.1-.2.2-.3.3l-5.9 4.6c-.1.1-.2.2-.3.3l-5.6 5c-.1.1-.2.2-.3.3l-5.3 5.3c-.1.1-.2.2-.3.3l-5 5.5c-.1.1-.2.2-.3.3l-4.6 5.9c-.1.1-.2.2-.3.4l-4.3 6.1c-.1.1-.2.2-.2.4l-4 6.4c-.1.1-.2.3-.2.4l-3.6 6.6c-.1.1-.1.3-.2.4l-3.2 6.7c-.1.1-.1.3-.2.4l-2.8 7c-.1.1-.1.3-.1.4l-2.4 7.1c0 .1-.1.3-.1.4l-2 7.2c0 .1-.1.3-.1.4l-1.5 7.3c0 .1-.1.3-.1.4l-1.1 7.4c0 .1 0 .3-.1.4l-.8 7.5v.4l-.8 8.1v.4l.1 7.5v.4l.6 7.5v.4l1 7.4c0 .1 0 .3.1.4l1.4 7.4c0 .1.1.3.1.4l1.9 7.3c0 .1.1.3.1.4l2.2 7.2c0 .1.1.3.1.4l2.7 7c.1.1.1.3.2.4l3.1 6.8c.1.1.1.3.2.4l3.4 6.6c.1.1.1.3.2.4l3.9 6.4c.1.1.2.2.2.4l4.2 6.2c.1.1.2.2.2.3l4.5 6c.1.1.2.2.3.3l4.9 5.6c.1.1.2.2.3.3l5.2 5.4c.1.1.2.2.3.3l5.5 5.1c.1.1.2.2.3.3l5.7 4.8c.1.1.2.2.3.3l6.1 4.4c.1.1.2.2.4.2l6.3 4.1c.1.1.2.2.4.2l6.5 3.6c.1.1.2.1.3.2l174 89c1.2.6 2.4.9 3.8.9 2.1 0 4.2-.8 5.7-2.3 2.5-2.4 3.3-6.2 1.8-9.4l-36.6-79.5h130.8l-11 24.1c-1.4 3.2-.8 7 1.8 9.4 1.5 1.5 3.6 2.3 5.7 2.3 1.3 0 2.5-.3 3.8-.9l174.1-88.5c.1-.1.2-.1.3-.2l6.5-3.6c.1-.1.3-.1.4-.2l6.3-4.1c.1-.1.2-.2.4-.2l6.1-4.4c.1-.1.2-.2.3-.3l5.7-4.8c.1-.1.2-.2.3-.3l5.5-5.1c.1-.1.2-.2.3-.3l5.2-5.4c.1-.1.2-.2.3-.3l4.9-5.7c.1-.1.2-.2.3-.3l4.5-6c.1-.1.2-.2.2-.3l4.2-6.2c.1-.1.2-.2.2-.4l3.9-6.4c.1-.1.1-.3.2-.4l3.4-6.6c.1-.1.1-.3.2-.4l3.1-6.8c.1-.1.1-.3.2-.4l2.7-7.1c.1-.1.1-.3.1-.4l2.2-7.2c0-.1.1-.3.1-.4l1.9-7.3c0-.1.1-.3.1-.4l1.4-7.4c0-.1.1-.3.1-.4l1-7.4c0-.1 0-.3 0-.4l.6-7.5c0-.1 0-.3 0-.4l.1-7.5c.8-.3.8-.4.8-.6zm-357 63.9 22-138.3c.2-1.2 1.2-2 2.3-2h66.1c1.3 0 2.3 1 2.3 2.3v.4l-4.8 29.9c-.1 1.2-1.2 2-2.3 2h-28.8l-3.1 18.2h25.2c1.3 0 2.3 1 2.3 2.3v.3l-4.4 28.7c-.1 1.2-1.2 2-2.3 2h-25.9l-3.2 19.7h28.2c1.3 0 2.3 1 2.3 2.3v.3l-5.1 32.3c-.2 1.2-1.2 2-2.3 2h-66.1c-1.3 0-2.3-1-2.4-2.3-.1.3-.1.1 0-.1zm116.6 97.3h-151.4c-2.9 0-5.4 1.4-7 3.9-1.5 2.4-1.8 5.4-.6 8l32 69.7-152.6-77.8-6.2-3.5-5.9-3.8-5.6-4.1-5.4-4.4-5.2-4.8-4.9-5.1-4.5-5.3-4.2-5.5-4-5.9-3.5-6.1-3.2-6.2-2.9-6.4-2.5-6.5-2.1-6.7-1.8-6.8-1.3-6.8-.9-7-.6-7-.1-7.1.3-7 .7-7 1.1-7 1.4-6.8 1.9-6.7 2.3-6.6 2.7-6.5 3-6.3 3.4-6.2 3.8-6 4.1-5.7 4.4-5.5 4.8-5.2 5-5 5.3-4.6 5.5-4.3 5.7-4 6-3.6 6.2-3.3 6.4-3 6.5-2.5 6.6-2.2 6.7-1.8 6.8-1.4 6.6-1h19.8l-1.9 2.9c-.2.2-.3.6-.4.8l-1.7 3.2c-.1.3-.3.6-.4.9l-1.2 3.4c-.1.3-.2.6-.2.9l-.9 3.5c-.1.3-.1.7-.2 1l-.4 3.5c0 .3-.1.7-.1 1v3.6c0 .3 0 .7.1 1l.4 3.5c0 .3.1.7.2 1l.9 3.5c.1.3.1.7.2.9l1.2 3.4c.1.3.2.7.4.9l1.7 3.2c.1.2.3.6.4.8l1.8 2.7-3.1.2c-.3 0-.7.1-1 .1l-3.5.7c-.3.1-.7.1-1 .2l-3.4 1c-.3.1-.6.2-.9.3l-3.3 1.4c-.3.1-.6.2-.9.4l-3.1 1.8c-.2.1-.6.3-.8.6l-2.9 2.1c-.2.2-.6.4-.8.7l-2.7 2.4c-.2.2-.4.4-.7.7l-2.3 2.8c-.2.2-.4.6-.6.8l-2 3c-.2.2-.3.6-.4.9l-1.7 3.2c-.1.3-.2.6-.3.9l-1.2 3.4c-.1.3-.2.6-.2.9l-.9 3.5c-.1.3-.1.7-.2 1l-.4 3.5c0 .3-.1.7-.1 1v3.6c0 .3 0 .7.1 1l.4 3.5c0 .3.1.7.2 1l.9 3.5c.1.3.1.7.2.9l1.2 3.4c.1.3.2.6.3.9l1.7 3.2c.1.3.3.6.4.9l2 3c.2.2.3.6.6.8l2.3 2.8c.2.2.4.4.7.7l2.7 2.4c.2.2.4.4.8.7l2.9 2.2c.2.2.6.3.8.6l3.1 1.8c.2.1.6.3.9.4l3.3 1.4c.3.1.6.2.9.3l3.4 1c.3.1.7.2 1 .2l3.5.7c.3 0 .7.1 1 .1l3.6.2h.4 14.5l-1.8 2.7c-.2.2-.3.6-.4.8l-1.7 3.2c-.1.3-.3.6-.4.9l-1.2 3.4c-.1.3-.2.6-.2.9l-.9 3.5c-.1.3-.1.7-.2 1l-.4 3.5c0 .3-.1.7-.1 1v3.6c0 .3 0 .7.1 1l.4 3.5c0 .3.1.7.2 1l.9 3.5c.1.3.1.7.2.9l1.2 3.4c.1.3.2.7.4.9l1.7 3.2c.1.3.3.6.4.8l2 3c.2.2.3.6.6.8l2.3 2.8.7.7 2.7 2.4c.2.2.4.4.8.7l2.9 2.1c.2.2.6.3.8.6l3.1 1.8c.3.1.6.3.9.4l3.3 1.4.9.3 3.4 1c.3.1.7.1.9.2l3.5.7c.3.1.7.1 1 .1l3.6.2h.4 188.1zm61.9-94.5h-35.1c-1.3 0-2.3-1.1-2.3-2.3 0-.1 0-.2 0-.3l8.4-53.2h-16.2l-8.5 53.9c-.2 1.2-1.2 2-2.3 2h-35.1c-1.3 0-2.3-1.1-2.3-2.3 0-.1 0-.2 0-.3l22-138.3c.2-1.2 1.2-2 2.3-2h35.1c1.3 0 2.3 1.1 2.3 2.3v.3l-7.8 49h16.5l7.7-49.7c.1-1.2 1.2-2 2.3-2h35.1c1.3 0 2.3 1.1 2.3 2.3v.3l-22 138.3c-.2 1.1-1.2 2-2.4 2zm82.1-140.3-22 138.3c-.1 1.2-1.2 2-2.3 2h-35.1c-1.3 0-2.3-1.1-2.3-2.3 0-.1 0-.2 0-.3l21.9-138.3c.2-1.2 1.2-2 2.3-2h35.1c1.3 0 2.3 1.1 2.3 2.3.1.1.1.2.1.3z" fill="#fff"/>
</svg>
